<svg id="svg" version="1.1" xmlns="http://www.w3.org/2000/svg" xmlns:xlink="http://www.w3.org/1999/xlink" width="400" height="395.26066350710903" viewBox="0, 0, 400,395.26066350710903"><g id="svgg"><path id="path0" d="M192.087 147.774 C 167.087 151.839,147.577 174.316,147.577 199.053 C 147.577 199.784,148.822 199.802,200.198 199.802 L 252.819 199.802 252.812 197.923 C 252.695 167.586,222.681 142.800,192.087 147.774 M31.659 203.264 C 31.714 227.873,41.496 263.896,53.145 282.389 C 53.661 283.207,54.859 285.213,55.807 286.845 C 57.341 289.486,58.941 291.923,63.072 297.912 C 65.228 301.038,72.020 309.493,75.126 312.918 C 76.784 314.745,78.357 316.547,78.622 316.922 C 79.541 318.223,90.434 327.899,95.807 332.188 C 136.448 364.626,193.862 376.678,242.854 363.055 C 250.228 361.005,253.512 360.007,255.984 359.068 C 257.399 358.530,259.802 357.620,261.325 357.044 C 266.240 355.188,276.883 350.173,282.426 347.101 C 291.436 342.108,294.793 339.851,306.238 331.091 C 327.402 314.891,348.320 285.839,358.177 258.952 C 364.486 241.744,368.744 219.822,368.744 204.551 L 368.744 199.802 326.805 199.802 L 284.866 199.802 284.854 202.275 C 284.789 215.278,279.442 232.764,271.818 244.906 C 266.967 252.632,258.885 261.547,252.012 266.756 C 197.269 308.242,120.203 272.686,115.682 203.858 L 115.416 199.802 73.534 199.802 L 31.652 199.802 31.659 203.264 " stroke="none" fill="#fbfbfb" fill-rule="evenodd"></path><path id="path1" d="M189.713 31.275 C 184.428 31.662,175.422 32.724,171.513 33.421 C 166.702 34.278,158.975 35.963,157.864 36.397 C 157.319 36.609,155.450 37.128,153.709 37.548 C 150.547 38.313,139.490 42.049,136.887 43.232 C 136.129 43.577,133.106 44.944,130.168 46.271 C 71.259 72.884,33.772 130.115,31.546 196.835 L 31.454 199.604 73.633 199.705 L 115.812 199.806 116.031 194.562 C 117.818 151.761,155.887 115.454,199.308 115.140 L 200.198 115.134 200.198 72.997 L 200.198 30.861 196.934 30.923 C 195.138 30.957,191.889 31.115,189.713 31.275 M147.759 202.868 C 151.409 247.585,201.882 268.105,235.730 238.634 C 245.553 230.081,252.819 214.150,252.819 201.167 L 252.819 199.802 200.164 199.802 L 147.509 199.802 147.759 202.868 " stroke="none" fill="#5ce3e3" fill-rule="evenodd"></path><path id="path2" d="M0.000 197.824 L 0.000 395.648 200.000 395.648 L 400.000 395.648 400.000 197.824 L 400.000 0.000 200.000 0.000 L 0.000 0.000 0.000 197.824 M200.593 73.163 L 200.593 115.466 198.121 115.684 C 196.761 115.803,194.045 116.008,192.087 116.138 C 187.188 116.463,175.075 118.926,173.925 119.831 C 173.687 120.019,172.571 120.472,171.446 120.839 C 129.464 134.531,105.633 185.108,120.957 227.996 C 139.245 279.179,201.983 300.359,246.224 270.285 C 247.711 269.274,249.320 268.180,249.800 267.854 C 268.746 254.977,281.595 231.944,284.011 206.528 L 284.669 199.604 326.961 199.504 L 369.253 199.403 368.974 206.427 C 368.639 214.869,367.728 224.510,366.981 227.498 C 366.682 228.694,366.223 231.009,365.961 232.641 C 363.435 248.365,354.969 270.535,345.488 286.251 C 344.306 288.210,343.047 290.323,342.689 290.947 C 336.419 301.872,322.854 317.204,308.210 329.916 C 304.959 332.737,299.093 337.158,295.153 339.755 C 292.651 341.405,289.891 343.232,289.021 343.816 C 284.596 346.783,268.548 354.821,262.908 356.895 C 261.820 357.295,259.238 358.269,257.171 359.060 C 255.104 359.850,251.632 361.005,249.456 361.626 C 247.280 362.246,244.876 362.952,244.115 363.193 C 243.353 363.434,241.128 363.980,239.169 364.407 C 237.211 364.833,234.451 365.443,233.037 365.762 C 231.622 366.081,228.339 366.625,225.741 366.972 C 223.143 367.319,220.901 367.675,220.759 367.763 C 219.087 368.796,192.775 369.083,183.976 368.164 C 177.616 367.500,166.734 365.824,164.903 365.226 C 164.187 364.992,161.820 364.438,159.644 363.994 C 157.468 363.551,154.975 362.937,154.105 362.630 C 153.234 362.323,150.297 361.360,147.576 360.490 C 142.804 358.963,138.107 357.203,134.641 355.643 C 133.728 355.232,132.877 354.896,132.749 354.896 C 132.622 354.896,129.922 353.650,126.750 352.127 C 123.577 350.603,120.938 349.357,120.884 349.357 C 120.459 349.357,108.850 342.203,105.638 339.961 C 104.441 339.126,102.374 337.695,101.045 336.781 C 89.219 328.653,71.525 310.822,62.678 298.117 C 60.111 294.430,56.168 288.410,55.425 287.043 C 54.952 286.172,53.867 284.303,53.013 282.888 C 44.512 268.802,36.258 245.333,33.605 227.704 C 33.148 224.662,32.707 222.066,32.627 221.936 C 31.299 219.787,31.017 190.660,32.229 180.811 C 35.324 155.657,45.008 127.697,56.552 110.584 C 57.139 109.713,58.794 107.221,60.231 105.045 C 71.369 88.169,88.535 70.986,105.638 59.596 C 114.519 53.681,120.672 50.301,133.136 44.494 C 138.654 41.923,150.940 37.672,156.479 36.417 C 158.437 35.974,160.930 35.345,162.018 35.020 C 163.106 34.695,166.090 34.080,168.650 33.654 C 171.210 33.227,173.449 32.790,173.626 32.680 C 173.927 32.494,183.629 31.411,187.537 31.128 C 188.516 31.057,191.855 30.968,194.955 30.930 L 200.593 30.861 200.593 73.163 M210.287 147.732 C 218.345 149.291,224.388 152.009,232.823 157.864 C 239.423 162.444,247.974 174.577,250.479 182.913 C 250.949 184.477,251.587 186.616,251.896 187.667 C 258.615 210.454,244.106 238.900,220.772 248.685 C 169.879 270.026,124.499 208.284,159.755 165.668 C 164.959 159.378,177.601 150.346,181.203 150.346 C 181.444 150.346,182.208 150.054,182.899 149.696 C 187.828 147.147,202.013 146.130,210.287 147.732 " stroke="none" fill="#04040c" fill-rule="evenodd"></path><path id="path3" d="M200.198 72.970 L 200.198 115.078 199.308 115.250 C 198.544 115.397,198.573 115.429,199.505 115.475 L 200.593 115.529 200.593 73.195 C 200.593 49.911,200.504 30.861,200.396 30.861 C 200.287 30.861,200.198 49.810,200.198 72.970 M177.844 32.047 L 175.865 32.319 177.646 32.334 C 178.625 32.343,179.960 32.214,180.613 32.047 C 182.173 31.651,180.737 31.651,177.844 32.047 M153.907 37.024 L 152.127 37.571 153.709 37.345 C 154.580 37.220,155.559 36.962,155.885 36.771 C 156.708 36.289,156.008 36.379,153.907 37.024 M128.586 46.489 C 128.042 46.800,127.774 47.054,127.992 47.054 C 128.210 47.054,128.833 46.800,129.377 46.489 C 129.921 46.178,130.188 45.923,129.970 45.923 C 129.753 45.923,129.130 46.178,128.586 46.489 M123.739 48.891 C 122.260 49.693,122.350 50.028,123.838 49.258 C 124.491 48.921,125.025 48.560,125.025 48.457 C 125.025 48.202,124.982 48.216,123.739 48.891 M114.738 53.843 C 114.081 54.381,114.014 54.515,114.540 54.244 C 115.831 53.577,116.546 53.029,116.123 53.032 C 115.905 53.033,115.282 53.398,114.738 53.843 M100.177 63.338 C 99.264 64.010,98.516 64.644,98.516 64.747 C 98.516 64.851,99.318 64.360,100.297 63.657 C 101.898 62.507,102.319 62.117,101.957 62.117 C 101.891 62.117,101.090 62.666,100.177 63.338 M93.721 68.478 L 91.988 70.091 93.867 68.592 C 94.901 67.767,95.747 67.041,95.747 66.979 C 95.747 66.673,95.315 66.993,93.721 68.478 M90.186 71.513 L 88.823 72.997 90.307 71.634 C 91.688 70.364,91.972 70.030,91.670 70.030 C 91.604 70.030,90.936 70.697,90.186 71.513 M86.647 74.580 C 85.686 75.559,84.989 76.360,85.097 76.360 C 85.206 76.360,86.081 75.559,87.043 74.580 C 88.004 73.600,88.701 72.799,88.592 72.799 C 88.483 72.799,87.608 73.600,86.647 74.580 M80.308 80.613 L 76.954 84.075 80.415 80.721 C 83.631 77.606,84.058 77.151,83.770 77.151 C 83.710 77.151,82.153 78.709,80.308 80.613 M74.368 86.944 L 72.206 89.219 74.481 87.056 C 75.732 85.867,76.756 84.843,76.756 84.781 C 76.756 84.487,76.377 84.830,74.368 86.944 M70.800 90.900 L 69.436 92.384 70.920 91.020 C 72.301 89.751,72.585 89.416,72.283 89.416 C 72.217 89.416,71.550 90.084,70.800 90.900 M68.051 94.164 C 67.587 94.817,67.295 95.351,67.404 95.351 C 67.513 95.351,67.982 94.817,68.447 94.164 C 68.912 93.511,69.203 92.977,69.094 92.977 C 68.986 92.977,68.516 93.511,68.051 94.164 M59.102 106.528 C 57.740 108.839,57.652 109.036,58.345 108.210 C 59.149 107.252,59.842 106.034,59.582 106.034 C 59.479 106.034,59.263 106.256,59.102 106.528 M54.006 114.738 C 53.668 115.391,53.481 115.925,53.590 115.925 C 53.699 115.925,54.064 115.391,54.402 114.738 C 54.739 114.085,54.926 113.551,54.818 113.551 C 54.709 113.551,54.344 114.085,54.006 114.738 M193.373 115.819 C 194.298 115.902,195.811 115.902,196.736 115.819 C 197.661 115.736,196.904 115.667,195.054 115.667 C 193.205 115.667,192.448 115.736,193.373 115.819 M181.032 117.557 C 180.175 117.758,179.374 118.023,179.252 118.146 C 178.933 118.468,182.083 117.865,182.789 117.469 C 183.520 117.059,183.058 117.082,181.032 117.557 M172.181 120.152 C 171.243 120.483,170.546 120.826,170.633 120.913 C 170.841 121.121,173.384 120.267,173.867 119.827 C 174.337 119.400,174.267 119.414,172.181 120.152 M166.568 122.453 C 166.024 122.764,165.757 123.018,165.974 123.018 C 166.192 123.018,166.815 122.764,167.359 122.453 C 167.903 122.142,168.170 121.888,167.953 121.888 C 167.735 121.888,167.112 122.142,166.568 122.453 M49.060 123.838 C 48.616 124.708,48.342 125.420,48.451 125.420 C 48.560 125.420,49.012 124.708,49.456 123.838 C 49.900 122.967,50.174 122.255,50.066 122.255 C 49.957 122.255,49.504 122.967,49.060 123.838 M44.377 133.944 C 43.714 135.399,43.840 135.709,44.557 134.386 C 44.892 133.769,45.092 133.189,45.001 133.099 C 44.911 133.008,44.630 133.389,44.377 133.944 M141.435 139.367 L 138.279 142.631 141.543 139.475 C 144.575 136.544,144.987 136.103,144.699 136.103 C 144.639 136.103,143.171 137.572,141.435 139.367 M41.983 140.103 C 41.739 140.803,41.609 141.444,41.693 141.528 C 41.778 141.613,42.047 141.110,42.290 140.411 C 42.534 139.712,42.664 139.070,42.580 138.986 C 42.495 138.901,42.226 139.404,41.983 140.103 M135.880 145.302 L 134.718 146.588 136.004 145.425 C 137.203 144.342,137.472 144.016,137.166 144.016 C 137.098 144.016,136.519 144.594,135.880 145.302 M39.248 147.854 C 38.663 149.761,38.946 150.045,39.565 148.170 C 39.826 147.379,39.962 146.655,39.868 146.561 C 39.774 146.467,39.495 147.049,39.248 147.854 M197.132 147.079 C 198.818 147.154,201.578 147.154,203.264 147.079 C 204.951 147.005,203.571 146.945,200.198 146.945 C 196.825 146.945,195.445 147.005,197.132 147.079 M132.542 149.555 C 132.077 150.208,131.786 150.742,131.895 150.742 C 132.003 150.742,132.473 150.208,132.938 149.555 C 133.403 148.902,133.694 148.368,133.585 148.368 C 133.476 148.368,133.007 148.902,132.542 149.555 M130.564 152.324 C 130.099 152.977,129.808 153.511,129.916 153.511 C 130.025 153.511,130.495 152.977,130.959 152.324 C 131.424 151.672,131.716 151.137,131.607 151.137 C 131.498 151.137,131.029 151.672,130.564 152.324 M235.015 159.966 C 235.015 160.034,235.593 160.612,236.301 161.251 L 237.587 162.413 236.424 161.128 C 235.341 159.929,235.015 159.660,235.015 159.966 M162.598 162.512 L 160.435 164.787 162.710 162.625 C 164.824 160.616,165.166 160.237,164.873 160.237 C 164.811 160.237,163.787 161.261,162.598 162.512 M239.763 164.787 C 240.501 165.549,241.194 166.172,241.303 166.172 C 241.411 166.172,240.896 165.549,240.158 164.787 C 239.420 164.026,238.727 163.403,238.618 163.403 C 238.509 163.403,239.024 164.026,239.763 164.787 M123.111 165.596 C 122.448 167.050,122.574 167.361,123.291 166.038 C 123.626 165.421,123.826 164.841,123.735 164.751 C 123.645 164.660,123.364 165.040,123.111 165.596 M32.693 176.495 C 32.556 177.182,32.465 178.301,32.491 178.981 C 32.520 179.717,32.678 179.268,32.882 177.871 C 33.246 175.375,33.112 174.400,32.693 176.495 M118.299 179.624 C 118.032 180.736,117.893 181.724,117.989 181.820 C 118.085 181.916,118.375 181.079,118.633 179.959 C 118.892 178.839,119.031 177.851,118.943 177.763 C 118.856 177.675,118.565 178.513,118.299 179.624 M32.155 181.998 C 32.155 182.977,32.232 183.378,32.327 182.888 C 32.421 182.399,32.421 181.597,32.327 181.108 C 32.232 180.618,32.155 181.019,32.155 181.998 M31.744 185.559 C 31.744 186.320,31.825 186.632,31.925 186.251 C 32.024 185.870,32.024 185.247,31.925 184.866 C 31.825 184.486,31.744 184.797,31.744 185.559 M252.097 189.318 C 252.084 189.753,252.221 190.821,252.401 191.691 C 252.676 193.022,252.728 193.085,252.727 192.087 C 252.725 190.701,252.134 188.101,252.097 189.318 M147.668 192.681 C 147.668 193.442,147.750 193.754,147.849 193.373 C 147.949 192.992,147.949 192.369,147.849 191.988 C 147.750 191.607,147.668 191.919,147.668 192.681 M116.087 199.604 C 116.086 203.304,116.146 204.870,116.219 203.086 C 116.292 201.301,116.292 198.274,116.220 196.360 C 116.147 194.445,116.087 195.905,116.087 199.604 M147.333 199.011 C 147.333 201.731,147.397 202.844,147.474 201.484 C 147.551 200.124,147.551 197.898,147.474 196.538 C 147.397 195.178,147.333 196.291,147.333 199.011 M284.607 200.017 C 284.478 200.353,284.484 200.739,284.620 200.874 C 284.755 201.010,284.866 200.825,284.866 200.463 C 284.866 199.855,288.033 199.798,327.102 199.703 L 369.337 199.601 327.089 199.504 C 289.318 199.417,284.817 199.471,284.607 200.017 M252.949 202.374 C 252.951 203.897,253.022 204.472,253.108 203.651 C 253.193 202.830,253.192 201.584,253.105 200.881 C 253.017 200.179,252.947 200.851,252.949 202.374 M31.394 204.946 C 31.394 206.795,31.463 207.552,31.546 206.627 C 31.629 205.702,31.629 204.189,31.546 203.264 C 31.463 202.339,31.394 203.096,31.394 204.946 M284.194 205.737 C 284.194 206.934,284.268 207.423,284.359 206.825 C 284.449 206.227,284.449 205.247,284.359 204.649 C 284.268 204.050,284.194 204.540,284.194 205.737 M147.676 205.539 C 147.681 206.409,147.762 206.719,147.856 206.227 C 147.951 205.735,147.948 205.023,147.848 204.644 C 147.749 204.266,147.672 204.669,147.676 205.539 M368.852 205.737 C 368.852 206.716,368.929 207.117,369.023 206.627 C 369.117 206.137,369.117 205.336,369.023 204.847 C 368.929 204.357,368.852 204.758,368.852 205.737 M252.483 206.182 C 252.450 206.753,252.335 207.821,252.227 208.556 L 252.030 209.891 252.447 208.563 C 252.676 207.833,252.791 206.765,252.703 206.189 L 252.542 205.143 252.483 206.182 M283.771 209.693 C 283.771 210.455,283.853 210.767,283.952 210.386 C 284.052 210.005,284.052 209.382,283.952 209.001 C 283.853 208.620,283.771 208.932,283.771 209.693 M149.207 214.045 C 149.200 214.372,149.440 215.173,149.738 215.826 C 150.438 217.354,150.448 216.643,149.753 214.837 C 149.459 214.075,149.214 213.719,149.207 214.045 M250.129 216.696 C 249.882 217.501,249.745 218.225,249.825 218.305 C 249.905 218.385,250.184 217.804,250.445 217.013 C 250.706 216.222,250.843 215.498,250.749 215.404 C 250.655 215.310,250.376 215.892,250.129 216.696 M32.147 217.409 C 32.152 218.279,32.233 218.588,32.327 218.096 C 32.422 217.604,32.418 216.892,32.319 216.514 C 32.220 216.135,32.143 216.538,32.147 217.409 M247.555 222.953 C 247.193 223.711,246.979 224.332,247.078 224.332 C 247.349 224.332,248.550 221.910,248.369 221.729 C 248.283 221.643,247.917 222.194,247.555 222.953 M238.209 236.311 C 235.285 239.482,235.056 239.801,237.151 237.784 C 239.510 235.514,242.435 232.227,242.071 232.256 C 241.998 232.262,240.260 234.087,238.209 236.311 M276.622 234.834 C 275.959 236.289,276.086 236.599,276.802 235.277 C 277.137 234.659,277.337 234.080,277.247 233.989 C 277.156 233.899,276.875 234.279,276.622 234.834 M162.809 237.389 C 164.101 238.694,165.247 239.763,165.356 239.763 C 165.465 239.763,164.497 238.694,163.205 237.389 C 161.913 236.083,160.767 235.015,160.658 235.015 C 160.549 235.015,161.517 236.083,162.809 237.389 M273.986 240.158 C 273.649 240.811,273.461 241.345,273.570 241.345 C 273.679 241.345,274.044 240.811,274.382 240.158 C 274.719 239.505,274.907 238.971,274.798 238.971 C 274.689 238.971,274.324 239.505,273.986 240.158 M232.443 241.602 C 231.252 242.667,231.163 242.814,232.083 242.199 C 233.176 241.468,234.552 240.135,234.173 240.173 C 234.092 240.181,233.314 240.824,232.443 241.602 M167.950 241.737 C 168.181 242.110,171.931 244.743,173.294 245.489 C 174.473 246.134,173.084 245.029,170.399 243.186 C 168.915 242.168,167.813 241.516,167.950 241.737 M223.937 246.884 C 222.740 247.517,221.900 248.042,222.071 248.053 C 222.491 248.078,226.311 246.128,226.311 245.888 C 226.311 245.624,226.365 245.601,223.937 246.884 M174.876 246.287 C 174.876 246.558,177.299 247.759,177.480 247.578 C 177.566 247.492,177.015 247.126,176.256 246.764 C 175.497 246.402,174.876 246.187,174.876 246.287 M198.121 252.715 C 199.263 252.795,201.133 252.795,202.275 252.715 C 203.417 252.635,202.483 252.570,200.198 252.570 C 197.913 252.570,196.978 252.635,198.121 252.715 M136.499 255.317 C 136.499 255.385,137.077 255.963,137.784 256.603 L 139.070 257.765 137.908 256.479 C 136.825 255.280,136.499 255.011,136.499 255.317 M143.225 262.117 C 143.963 262.878,144.656 263.501,144.765 263.501 C 144.873 263.501,144.358 262.878,143.620 262.117 C 142.882 261.355,142.189 260.732,142.080 260.732 C 141.971 260.732,142.486 261.355,143.225 262.117 M256.553 262.413 L 255.391 263.699 256.677 262.537 C 257.384 261.898,257.962 261.319,257.962 261.251 C 257.962 260.946,257.636 261.215,256.553 262.413 M206.627 283.952 C 207.008 284.052,207.631 284.052,208.012 283.952 C 208.393 283.853,208.081 283.771,207.319 283.771 C 206.558 283.771,206.246 283.853,206.627 283.952 M320.074 318.793 L 314.738 324.233 320.178 318.898 C 325.232 313.941,325.797 313.353,325.514 313.353 C 325.456 313.353,323.008 315.801,320.074 318.793 M78.140 316.914 C 78.990 317.784,79.775 318.497,79.884 318.497 C 79.992 318.497,79.386 317.784,78.536 316.914 C 77.686 316.044,76.902 315.331,76.793 315.331 C 76.684 315.331,77.291 316.044,78.140 316.914 M80.712 319.412 C 80.712 319.480,81.291 320.058,81.998 320.697 L 83.284 321.860 82.122 320.574 C 81.039 319.375,80.712 319.106,80.712 319.412 M86.647 325.025 C 87.385 325.786,88.078 326.409,88.187 326.409 C 88.296 326.409,87.781 325.786,87.043 325.025 C 86.304 324.263,85.611 323.640,85.503 323.640 C 85.394 323.640,85.909 324.263,86.647 325.025 M302.077 334.564 L 300.495 335.980 302.176 334.722 C 303.623 333.640,304.145 333.118,303.759 333.141 C 303.704 333.145,302.948 333.785,302.077 334.564 M179.925 367.837 C 180.418 367.931,181.130 367.928,181.508 367.829 C 181.886 367.730,181.484 367.652,180.613 367.657 C 179.743 367.661,179.433 367.742,179.925 367.837 M183.877 368.232 C 184.367 368.326,185.168 368.326,185.658 368.232 C 186.147 368.137,185.747 368.060,184.768 368.060 C 183.788 368.060,183.388 368.137,183.877 368.232 M215.929 368.232 C 216.422 368.327,217.134 368.323,217.512 368.224 C 217.890 368.125,217.488 368.048,216.617 368.052 C 215.747 368.057,215.437 368.138,215.929 368.232 M188.427 368.621 C 188.808 368.720,189.431 368.720,189.812 368.621 C 190.193 368.521,189.881 368.440,189.120 368.440 C 188.358 368.440,188.046 368.521,188.427 368.621 M209.798 368.632 C 210.399 368.723,211.289 368.721,211.776 368.627 C 212.263 368.533,211.771 368.458,210.682 368.461 C 209.594 368.464,209.196 368.541,209.798 368.632 " stroke="none" fill="#595e65" fill-rule="evenodd"></path><path id="path4" d="M191.592 31.133 C 191.973 31.233,192.596 31.233,192.977 31.133 C 193.358 31.034,193.046 30.952,192.285 30.952 C 191.523 30.952,191.212 31.034,191.592 31.133 M182.097 31.925 C 182.478 32.024,183.101 32.024,183.482 31.925 C 183.863 31.825,183.551 31.744,182.789 31.744 C 182.028 31.744,181.716 31.825,182.097 31.925 M83.460 77.844 L 82.097 79.327 83.581 77.964 C 84.962 76.695,85.246 76.360,84.944 76.360 C 84.878 76.360,84.210 77.028,83.460 77.844 M186.152 148.764 C 185.144 149.197,186.184 149.197,187.537 148.764 C 188.332 148.509,188.371 148.445,187.735 148.435 C 187.300 148.429,186.588 148.577,186.152 148.764 M165.158 160.336 L 163.996 161.622 165.282 160.460 C 165.989 159.821,166.568 159.242,166.568 159.174 C 166.568 158.869,166.241 159.138,165.158 160.336 M160.612 164.886 L 159.248 166.370 160.732 165.006 C 162.113 163.737,162.398 163.403,162.095 163.403 C 162.029 163.403,161.362 164.070,160.612 164.886 M31.770 188.724 C 31.770 189.921,31.845 190.410,31.935 189.812 C 32.026 189.214,32.026 188.234,31.935 187.636 C 31.845 187.038,31.770 187.527,31.770 188.724 M31.369 194.857 C 31.372 195.945,31.449 196.343,31.540 195.741 C 31.631 195.140,31.629 194.250,31.535 193.763 C 31.441 193.276,31.366 193.769,31.369 194.857 M252.938 197.824 C 252.938 199.021,253.012 199.510,253.102 198.912 C 253.193 198.314,253.193 197.334,253.102 196.736 C 253.012 196.137,252.938 196.627,252.938 197.824 M31.348 200.593 C 31.348 201.355,31.429 201.667,31.529 201.286 C 31.628 200.905,31.628 200.282,31.529 199.901 C 31.429 199.520,31.348 199.832,31.348 200.593 M115.656 202.176 C 115.656 203.591,115.728 204.169,115.815 203.462 C 115.903 202.755,115.903 201.597,115.815 200.890 C 115.728 200.183,115.656 200.762,115.656 202.176 M368.866 201.978 C 368.869 203.284,368.943 203.770,369.031 203.059 C 369.119 202.348,369.117 201.280,369.027 200.685 C 368.936 200.091,368.864 200.673,368.866 201.978 M284.597 203.363 C 284.597 204.777,284.669 205.356,284.757 204.649 C 284.845 203.942,284.845 202.784,284.757 202.077 C 284.669 201.370,284.597 201.949,284.597 203.363 M116.025 207.517 C 116.029 208.388,116.110 208.697,116.205 208.205 C 116.299 207.713,116.296 207.001,116.197 206.622 C 116.098 206.244,116.020 206.647,116.025 207.517 M31.760 210.089 C 31.760 211.068,31.837 211.469,31.931 210.979 C 32.025 210.490,32.025 209.688,31.931 209.199 C 31.837 208.709,31.760 209.110,31.760 210.089 M368.440 212.067 C 368.440 212.829,368.521 213.140,368.621 212.760 C 368.720 212.379,368.720 211.756,368.621 211.375 C 368.521 210.994,368.440 211.306,368.440 212.067 M32.161 214.243 C 32.164 215.331,32.240 215.730,32.331 215.128 C 32.422 214.527,32.420 213.636,32.326 213.150 C 32.232 212.663,32.158 213.155,32.161 214.243 M368.052 216.222 C 368.057 217.092,368.138 217.401,368.232 216.909 C 368.327 216.417,368.323 215.705,368.224 215.327 C 368.125 214.948,368.048 215.351,368.052 216.222 M32.543 218.595 C 32.547 219.466,32.628 219.775,32.723 219.283 C 32.818 218.791,32.814 218.079,32.715 217.701 C 32.616 217.322,32.539 217.725,32.543 218.595 M367.665 219.585 C 367.665 220.564,367.742 220.964,367.836 220.475 C 367.930 219.985,367.930 219.184,367.836 218.694 C 367.742 218.205,367.665 218.605,367.665 219.585 M367.253 223.145 C 367.253 223.907,367.334 224.219,367.434 223.838 C 367.533 223.457,367.533 222.834,367.434 222.453 C 367.334 222.072,367.253 222.384,367.253 223.145 M278.600 230.877 C 277.937 232.332,278.064 232.643,278.781 231.320 C 279.115 230.702,279.315 230.123,279.225 230.033 C 279.134 229.942,278.853 230.322,278.600 230.877 M122.651 233.584 C 122.651 234.008,123.828 236.202,124.056 236.202 C 124.165 236.202,123.959 235.623,123.600 234.916 C 122.865 233.472,122.651 233.171,122.651 233.584 M163.007 237.191 C 164.409 238.605,165.645 239.763,165.754 239.763 C 165.862 239.763,164.804 238.605,163.403 237.191 C 162.001 235.776,160.765 234.619,160.656 234.619 C 160.547 234.619,161.605 235.776,163.007 237.191 M124.629 237.536 C 124.629 237.964,126.201 240.950,126.426 240.950 C 126.534 240.950,126.242 240.193,125.775 239.268 C 124.858 237.449,124.629 237.103,124.629 237.536 M260.328 259.050 L 256.973 262.512 260.435 259.158 C 263.651 256.043,264.077 255.589,263.789 255.589 C 263.730 255.589,262.172 257.146,260.328 259.050 M140.653 259.941 C 141.724 261.029,142.690 261.919,142.799 261.919 C 142.908 261.919,142.120 261.029,141.048 259.941 C 139.977 258.853,139.011 257.962,138.902 257.962 C 138.793 257.962,139.581 258.853,140.653 259.941 M254.179 264.787 L 253.017 266.073 254.303 264.911 C 255.010 264.272,255.589 263.693,255.589 263.625 C 255.589 263.320,255.262 263.589,254.179 264.787 M249.852 268.086 L 248.665 269.106 249.951 268.255 C 250.658 267.787,251.236 267.327,251.236 267.233 C 251.236 266.937,251.069 267.040,249.852 268.086 M237.784 275.371 C 237.023 275.788,236.542 276.137,236.716 276.146 C 237.135 276.168,239.367 275.007,239.367 274.767 C 239.367 274.508,239.344 274.517,237.784 275.371 M350.742 275.767 C 350.404 276.419,350.217 276.954,350.326 276.954 C 350.435 276.954,350.800 276.419,351.137 275.767 C 351.475 275.114,351.662 274.580,351.553 274.580 C 351.445 274.580,351.079 275.114,350.742 275.767 M233.037 277.547 C 232.493 277.858,232.226 278.112,232.443 278.112 C 232.661 278.112,233.284 277.858,233.828 277.547 C 234.372 277.236,234.639 276.982,234.421 276.982 C 234.204 276.982,233.581 277.236,233.037 277.547 M172.700 279.935 C 173.353 280.234,174.154 280.473,174.481 280.466 C 174.807 280.460,174.451 280.214,173.689 279.921 C 171.883 279.225,171.172 279.235,172.700 279.935 M197.132 284.369 C 198.600 284.445,201.004 284.445,202.473 284.369 C 203.942 284.292,202.740 284.230,199.802 284.230 C 196.864 284.230,195.663 284.292,197.132 284.369 M322.444 316.024 L 319.090 319.486 322.552 316.131 C 325.767 313.016,326.194 312.562,325.906 312.562 C 325.847 312.562,324.289 314.120,322.444 316.024 M76.558 314.936 C 77.408 315.806,78.192 316.518,78.301 316.518 C 78.410 316.518,77.803 315.806,76.954 314.936 C 76.104 314.065,75.319 313.353,75.210 313.353 C 75.102 313.353,75.708 314.065,76.558 314.936 M83.877 322.255 C 84.616 323.017,85.309 323.640,85.417 323.640 C 85.526 323.640,85.011 323.017,84.273 322.255 C 83.535 321.494,82.842 320.870,82.733 320.870 C 82.624 320.870,83.139 321.494,83.877 322.255 M88.427 326.409 C 89.277 327.280,90.062 327.992,90.170 327.992 C 90.279 327.992,89.673 327.280,88.823 326.409 C 87.973 325.539,87.189 324.827,87.080 324.827 C 86.971 324.827,87.577 325.539,88.427 326.409 M311.158 326.904 L 309.594 328.586 311.276 327.022 C 312.840 325.567,313.139 325.223,312.840 325.223 C 312.775 325.223,312.019 325.979,311.158 326.904 M94.955 331.670 C 94.955 331.771,95.793 332.539,96.816 333.378 C 97.840 334.217,98.550 334.696,98.393 334.444 C 98.061 333.906,94.955 331.400,94.955 331.670 M108.012 341.192 C 108.012 341.301,108.546 341.771,109.199 342.235 C 109.852 342.700,110.386 342.992,110.386 342.883 C 110.386 342.774,109.852 342.305,109.199 341.840 C 108.546 341.375,108.012 341.084,108.012 341.192 M282.789 346.814 C 281.310 347.616,281.400 347.950,282.888 347.181 C 283.541 346.843,284.075 346.483,284.075 346.380 C 284.075 346.125,284.033 346.139,282.789 346.814 M126.212 351.731 C 126.973 352.148,127.774 352.489,127.992 352.489 C 128.210 352.489,127.765 352.148,127.003 351.731 C 126.241 351.314,125.440 350.973,125.223 350.973 C 125.005 350.973,125.450 351.314,126.212 351.731 M273.788 351.533 C 273.244 351.844,272.977 352.099,273.195 352.099 C 273.412 352.099,274.036 351.844,274.580 351.533 C 275.124 351.222,275.391 350.968,275.173 350.968 C 274.955 350.968,274.332 351.222,273.788 351.533 M268.645 353.907 C 268.101 354.218,267.834 354.472,268.051 354.472 C 268.269 354.472,268.892 354.218,269.436 353.907 C 269.980 353.596,270.247 353.342,270.030 353.342 C 269.812 353.342,269.189 353.596,268.645 353.907 M249.060 361.227 C 248.562 361.441,248.488 361.567,248.863 361.567 C 249.189 361.567,249.812 361.414,250.247 361.227 C 250.746 361.012,250.819 360.886,250.445 360.886 C 250.119 360.886,249.496 361.039,249.060 361.227 M182.493 367.830 C 182.873 367.929,183.497 367.929,183.877 367.830 C 184.258 367.730,183.947 367.649,183.185 367.649 C 182.423 367.649,182.112 367.730,182.493 367.830 M187.043 368.232 C 187.532 368.326,188.333 368.326,188.823 368.232 C 189.313 368.137,188.912 368.060,187.933 368.060 C 186.954 368.060,186.553 368.137,187.043 368.232 M211.573 368.239 C 212.280 368.326,213.437 368.326,214.144 368.239 C 214.852 368.151,214.273 368.079,212.859 368.079 C 211.444 368.079,210.865 368.151,211.573 368.239 M194.978 368.644 C 197.656 368.712,201.929 368.712,204.474 368.643 C 207.018 368.575,204.827 368.519,199.604 368.519 C 194.382 368.519,192.300 368.575,194.978 368.644 " stroke="none" fill="#84848a" fill-rule="evenodd"></path></g></svg>